<mxfile host="app.diagrams.net" modified="2023-05-28T07:00:40.905Z" agent="Mozilla/5.0 (Macintosh; Intel Mac OS X 10_15_7) AppleWebKit/537.36 (KHTML, like Gecko) Chrome/112.0.0.0 Safari/537.36" etag="J4SeEG26AO1IBvttxAZm" version="21.3.0" type="device">
  <diagram name="第 1 页" id="9PrDxIoEbsCKO6TxucSk">
    <mxGraphModel dx="1503" dy="868" grid="1" gridSize="10" guides="1" tooltips="1" connect="1" arrows="1" fold="1" page="1" pageScale="1" pageWidth="3300" pageHeight="4681" math="0" shadow="0">
      <root>
        <mxCell id="0" />
        <mxCell id="1" parent="0" />
        <mxCell id="NpV-8QHyQytOe-4JJP9I-1" value="ConnectWrap" style="swimlane;fontStyle=1;align=center;verticalAlign=top;childLayout=stackLayout;horizontal=1;startSize=26;horizontalStack=0;resizeParent=1;resizeParentMax=0;resizeLast=0;collapsible=1;marginBottom=0;whiteSpace=wrap;html=1;" parent="1" vertex="1">
          <mxGeometry x="280" y="393" width="160" height="52" as="geometry" />
        </mxCell>
        <mxCell id="NpV-8QHyQytOe-4JJP9I-2" value="+ req_" style="text;strokeColor=#b85450;fillColor=#f8cecc;align=center;verticalAlign=top;spacingLeft=4;spacingRight=4;overflow=hidden;rotatable=0;points=[[0,0.5],[1,0.5]];portConstraint=eastwest;whiteSpace=wrap;html=1;" parent="NpV-8QHyQytOe-4JJP9I-1" vertex="1">
          <mxGeometry y="26" width="160" height="26" as="geometry" />
        </mxCell>
        <mxCell id="NpV-8QHyQytOe-4JJP9I-3" value="V8::Object" style="swimlane;fontStyle=1;align=center;verticalAlign=top;childLayout=stackLayout;horizontal=1;startSize=26;horizontalStack=0;resizeParent=1;resizeParentMax=0;resizeLast=0;collapsible=1;marginBottom=0;whiteSpace=wrap;html=1;" parent="1" vertex="1">
          <mxGeometry x="280" y="140" width="160" height="52" as="geometry" />
        </mxCell>
        <mxCell id="NpV-8QHyQytOe-4JJP9I-4" value="内置字段" style="text;strokeColor=#6c8ebf;fillColor=#dae8fc;align=center;verticalAlign=top;spacingLeft=4;spacingRight=4;overflow=hidden;rotatable=0;points=[[0,0.5],[1,0.5]];portConstraint=eastwest;whiteSpace=wrap;html=1;" parent="NpV-8QHyQytOe-4JJP9I-3" vertex="1">
          <mxGeometry y="26" width="160" height="26" as="geometry" />
        </mxCell>
        <mxCell id="NpV-8QHyQytOe-4JJP9I-5" value="" style="curved=1;endArrow=classic;html=1;rounded=0;entryX=1;entryY=0.25;entryDx=0;entryDy=0;fillColor=#fff2cc;strokeColor=#000000;exitX=1;exitY=0.75;exitDx=0;exitDy=0;" parent="1" source="NpV-8QHyQytOe-4JJP9I-10" target="NpV-8QHyQytOe-4JJP9I-3" edge="1">
          <mxGeometry width="50" height="50" relative="1" as="geometry">
            <mxPoint x="500" y="370" as="sourcePoint" />
            <mxPoint x="490" y="550" as="targetPoint" />
            <Array as="points">
              <mxPoint x="510" y="300" />
            </Array>
          </mxGeometry>
        </mxCell>
        <mxCell id="NpV-8QHyQytOe-4JJP9I-6" value="存储 js object 对象: req_wrap_obj" style="edgeLabel;html=1;align=center;verticalAlign=middle;resizable=0;points=[];" parent="NpV-8QHyQytOe-4JJP9I-5" vertex="1" connectable="0">
          <mxGeometry x="-0.4194" y="1" relative="1" as="geometry">
            <mxPoint x="-5" y="-54" as="offset" />
          </mxGeometry>
        </mxCell>
        <mxCell id="NpV-8QHyQytOe-4JJP9I-7" value="" style="curved=1;endArrow=classic;html=1;rounded=0;exitX=0;exitY=0.5;exitDx=0;exitDy=0;entryX=0;entryY=0.25;entryDx=0;entryDy=0;fillColor=#fff2cc;strokeColor=#000000;" parent="1" source="NpV-8QHyQytOe-4JJP9I-4" target="NpV-8QHyQytOe-4JJP9I-10" edge="1">
          <mxGeometry width="50" height="50" relative="1" as="geometry">
            <mxPoint x="400" y="410" as="sourcePoint" />
            <mxPoint x="370" y="430" as="targetPoint" />
            <Array as="points">
              <mxPoint x="230" y="230" />
            </Array>
          </mxGeometry>
        </mxCell>
        <mxCell id="NpV-8QHyQytOe-4JJP9I-8" value="子类 ConnectObject 对象" style="edgeLabel;html=1;align=center;verticalAlign=middle;resizable=0;points=[];" parent="NpV-8QHyQytOe-4JJP9I-7" vertex="1" connectable="0">
          <mxGeometry x="-0.1589" y="6" relative="1" as="geometry">
            <mxPoint x="21" y="10" as="offset" />
          </mxGeometry>
        </mxCell>
        <mxCell id="NpV-8QHyQytOe-4JJP9I-9" value="." style="text;html=1;strokeColor=none;fillColor=none;align=center;verticalAlign=middle;whiteSpace=wrap;rounded=0;" parent="1" vertex="1">
          <mxGeometry x="660" y="860" width="60" height="30" as="geometry" />
        </mxCell>
        <mxCell id="NpV-8QHyQytOe-4JJP9I-10" value="BaseObject" style="swimlane;fontStyle=1;align=center;verticalAlign=top;childLayout=stackLayout;horizontal=1;startSize=26;horizontalStack=0;resizeParent=1;resizeParentMax=0;resizeLast=0;collapsible=1;marginBottom=0;whiteSpace=wrap;html=1;" parent="1" vertex="1">
          <mxGeometry x="280" y="280" width="160" height="52" as="geometry" />
        </mxCell>
        <mxCell id="NpV-8QHyQytOe-4JJP9I-11" value="-&amp;nbsp;persistent_handle_" style="text;strokeColor=#b85450;fillColor=#f8cecc;align=center;verticalAlign=top;spacingLeft=4;spacingRight=4;overflow=hidden;rotatable=0;points=[[0,0.5],[1,0.5]];portConstraint=eastwest;whiteSpace=wrap;html=1;" parent="NpV-8QHyQytOe-4JJP9I-10" vertex="1">
          <mxGeometry y="26" width="160" height="26" as="geometry" />
        </mxCell>
        <mxCell id="NpV-8QHyQytOe-4JJP9I-12" value="" style="endArrow=classic;html=1;rounded=0;exitX=0.5;exitY=0;exitDx=0;exitDy=0;" parent="1" source="NpV-8QHyQytOe-4JJP9I-1" edge="1">
          <mxGeometry width="50" height="50" relative="1" as="geometry">
            <mxPoint x="310" y="380" as="sourcePoint" />
            <mxPoint x="360" y="330" as="targetPoint" />
          </mxGeometry>
        </mxCell>
        <mxCell id="NpV-8QHyQytOe-4JJP9I-13" value="继承" style="edgeLabel;html=1;align=center;verticalAlign=middle;resizable=0;points=[];" parent="NpV-8QHyQytOe-4JJP9I-12" vertex="1" connectable="0">
          <mxGeometry x="0.4182" y="2" relative="1" as="geometry">
            <mxPoint x="2" y="17" as="offset" />
          </mxGeometry>
        </mxCell>
        <mxCell id="NpV-8QHyQytOe-4JJP9I-15" value="uv_connect_t" style="swimlane;fontStyle=1;align=center;verticalAlign=top;childLayout=stackLayout;horizontal=1;startSize=26;horizontalStack=0;resizeParent=1;resizeParentMax=0;resizeLast=0;collapsible=1;marginBottom=0;whiteSpace=wrap;html=1;" parent="1" vertex="1">
          <mxGeometry x="250" y="533" width="240" height="52" as="geometry" />
        </mxCell>
        <mxCell id="NpV-8QHyQytOe-4JJP9I-16" value="+ data" style="text;strokeColor=#6c8ebf;fillColor=#dae8fc;align=center;verticalAlign=top;spacingLeft=4;spacingRight=4;overflow=hidden;rotatable=0;points=[[0,0.5],[1,0.5]];portConstraint=eastwest;whiteSpace=wrap;html=1;" parent="NpV-8QHyQytOe-4JJP9I-15" vertex="1">
          <mxGeometry y="26" width="240" height="26" as="geometry" />
        </mxCell>
        <mxCell id="NpV-8QHyQytOe-4JJP9I-17" value="存储 uv_connect_t 结构体" style="curved=1;endArrow=classic;html=1;rounded=0;entryX=0;entryY=0.25;entryDx=0;entryDy=0;fillColor=#f8cecc;strokeColor=#000000;" parent="1" target="NpV-8QHyQytOe-4JJP9I-15" edge="1">
          <mxGeometry x="-0.2063" y="9" width="50" height="50" relative="1" as="geometry">
            <mxPoint x="280" y="443" as="sourcePoint" />
            <mxPoint x="210" y="483" as="targetPoint" />
            <Array as="points">
              <mxPoint x="200" y="483" />
              <mxPoint x="220" y="523" />
            </Array>
            <mxPoint as="offset" />
          </mxGeometry>
        </mxCell>
        <mxCell id="NpV-8QHyQytOe-4JJP9I-20" value="uv_tcp_t" style="swimlane;fontStyle=1;align=center;verticalAlign=top;childLayout=stackLayout;horizontal=1;startSize=26;horizontalStack=0;resizeParent=1;resizeParentMax=0;resizeLast=0;collapsible=1;marginBottom=0;whiteSpace=wrap;html=1;" parent="1" vertex="1">
          <mxGeometry x="250" y="653" width="240" height="52" as="geometry" />
        </mxCell>
        <mxCell id="NpV-8QHyQytOe-4JJP9I-21" value="+ data" style="text;strokeColor=#6c8ebf;fillColor=#dae8fc;align=center;verticalAlign=top;spacingLeft=4;spacingRight=4;overflow=hidden;rotatable=0;points=[[0,0.5],[1,0.5]];portConstraint=eastwest;whiteSpace=wrap;html=1;" parent="NpV-8QHyQytOe-4JJP9I-20" vertex="1">
          <mxGeometry y="26" width="240" height="26" as="geometry" />
        </mxCell>
        <mxCell id="NpV-8QHyQytOe-4JJP9I-22" value="+ handle" style="text;strokeColor=#6c8ebf;fillColor=#dae8fc;align=center;verticalAlign=top;spacingLeft=4;spacingRight=4;overflow=hidden;rotatable=0;points=[[0,0.5],[1,0.5]];portConstraint=eastwest;whiteSpace=wrap;html=1;" parent="1" vertex="1">
          <mxGeometry x="250" y="585" width="240" height="26" as="geometry" />
        </mxCell>
        <mxCell id="NpV-8QHyQytOe-4JJP9I-24" value="uv_tcp_t 类型" style="curved=1;endArrow=classic;html=1;rounded=0;entryX=0;entryY=0.25;entryDx=0;entryDy=0;exitX=-0.012;exitY=0.769;exitDx=0;exitDy=0;exitPerimeter=0;" parent="1" target="NpV-8QHyQytOe-4JJP9I-20" edge="1" source="NpV-8QHyQytOe-4JJP9I-22">
          <mxGeometry width="50" height="50" relative="1" as="geometry">
            <mxPoint x="30" y="453" as="sourcePoint" />
            <mxPoint x="-70" y="453" as="targetPoint" />
            <Array as="points">
              <mxPoint x="210" y="623" />
            </Array>
          </mxGeometry>
        </mxCell>
        <mxCell id="NpV-8QHyQytOe-4JJP9I-25" value="TCPWrap" style="swimlane;fontStyle=1;align=center;verticalAlign=top;childLayout=stackLayout;horizontal=1;startSize=26;horizontalStack=0;resizeParent=1;resizeParentMax=0;resizeLast=0;collapsible=1;marginBottom=0;whiteSpace=wrap;html=1;" parent="1" vertex="1">
          <mxGeometry x="250" y="753" width="240" height="52" as="geometry" />
        </mxCell>
        <mxCell id="NpV-8QHyQytOe-4JJP9I-26" value="" style="text;strokeColor=#6c8ebf;fillColor=#dae8fc;align=center;verticalAlign=top;spacingLeft=4;spacingRight=4;overflow=hidden;rotatable=0;points=[[0,0.5],[1,0.5]];portConstraint=eastwest;whiteSpace=wrap;html=1;" parent="NpV-8QHyQytOe-4JJP9I-25" vertex="1">
          <mxGeometry y="26" width="240" height="26" as="geometry" />
        </mxCell>
        <mxCell id="NpV-8QHyQytOe-4JJP9I-27" value="" style="curved=1;endArrow=classic;html=1;rounded=0;entryX=1;entryY=0.25;entryDx=0;entryDy=0;exitX=1;exitY=0.75;exitDx=0;exitDy=0;" parent="1" source="NpV-8QHyQytOe-4JJP9I-20" target="NpV-8QHyQytOe-4JJP9I-25" edge="1">
          <mxGeometry width="50" height="50" relative="1" as="geometry">
            <mxPoint x="520" y="803" as="sourcePoint" />
            <mxPoint x="570" y="753" as="targetPoint" />
            <Array as="points">
              <mxPoint x="520" y="733" />
            </Array>
          </mxGeometry>
        </mxCell>
        <mxCell id="nbM53TxVnkpUsHRxGqiI-1" value="" style="curved=1;endArrow=classic;html=1;rounded=0;exitX=1;exitY=0.75;exitDx=0;exitDy=0;entryX=1;entryY=0.25;entryDx=0;entryDy=0;" edge="1" parent="1" source="NpV-8QHyQytOe-4JJP9I-15" target="NpV-8QHyQytOe-4JJP9I-1">
          <mxGeometry width="50" height="50" relative="1" as="geometry">
            <mxPoint x="560" y="593" as="sourcePoint" />
            <mxPoint x="610" y="543" as="targetPoint" />
            <Array as="points">
              <mxPoint x="510" y="563" />
              <mxPoint x="540" y="483" />
            </Array>
          </mxGeometry>
        </mxCell>
        <mxCell id="nbM53TxVnkpUsHRxGqiI-2" value="存储 ConnectWrap&lt;br style=&quot;border-color: var(--border-color);&quot;&gt;(Dispatch函数设置)" style="edgeLabel;html=1;align=center;verticalAlign=middle;resizable=0;points=[];" vertex="1" connectable="0" parent="nbM53TxVnkpUsHRxGqiI-1">
          <mxGeometry x="0.1729" y="17" relative="1" as="geometry">
            <mxPoint as="offset" />
          </mxGeometry>
        </mxCell>
      </root>
    </mxGraphModel>
  </diagram>
</mxfile>
